<?xml version="1.0" encoding="us-ascii" standalone="no"?><svg xmlns="http://www.w3.org/2000/svg" xmlns:xlink="http://www.w3.org/1999/xlink" contentStyleType="text/css" height="631px" preserveAspectRatio="none" style="width:1779px;height:631px;background:#FFFFFF;" version="1.1" viewBox="0 0 1779 631" width="1779px" zoomAndPan="magnify"><defs/><g><!--class AppComponent--><g id="elem_AppComponent"><rect codeLine="2" fill="#F1F1F1" height="83.2188" id="AppComponent" rx="2.5" ry="2.5" style="stroke:#181818;stroke-width:0.5;" width="466" x="767.5" y="42.5"/><ellipse cx="947.25" cy="58.5" fill="#ADD1B2" rx="11" ry="11" style="stroke:#181818;stroke-width:1.0;"/><path d="M950.0156,54.375 Q950.1719,54.1563 950.3594,54.0469 Q950.5469,53.9375 950.7656,53.9375 Q951.1406,53.9375 951.375,54.2031 Q951.6094,54.4531 951.6094,55.0625 L951.6094,56.5156 Q951.6094,57.125 951.375,57.3906 Q951.1406,57.6563 950.7656,57.6563 Q950.4219,57.6563 950.2188,57.4531 Q950.0156,57.2656 949.9063,56.75 Q949.8594,56.3906 949.6719,56.2031 Q949.3438,55.8281 948.7344,55.6094 Q948.125,55.3906 947.5,55.3906 Q946.7344,55.3906 946.0938,55.7188 Q945.4688,56.0469 944.9688,56.7969 Q944.4844,57.5469 944.4844,58.5781 L944.4844,59.6719 Q944.4844,60.9063 945.375,61.7344 Q946.2656,62.5469 947.8594,62.5469 Q948.7969,62.5469 949.4531,62.2969 Q949.8438,62.1406 950.2656,61.7031 Q950.5313,61.4375 950.6719,61.3594 Q950.8281,61.2813 951.0313,61.2813 Q951.3594,61.2813 951.6094,61.5469 Q951.875,61.7969 951.875,62.1406 Q951.875,62.4844 951.5313,62.8906 Q951.0313,63.4688 950.2344,63.7969 Q949.1563,64.25 947.8594,64.25 Q946.3438,64.25 945.1406,63.625 Q944.1563,63.125 943.4688,62.0625 Q942.7813,60.9844 942.7813,59.7031 L942.7813,58.5469 Q942.7813,57.2188 943.3906,56.0781 Q944.0156,54.9219 945.1094,54.3125 Q946.2031,53.6875 947.4375,53.6875 Q948.1719,53.6875 948.8125,53.8594 Q949.4688,54.0156 950.0156,54.375 Z " fill="#000000"/><text fill="#000000" font-family="sans-serif" font-size="14" lengthAdjust="spacing" textLength="98" x="967.75" y="64.2285">AppComponent</text><line style="stroke:#181818;stroke-width:0.5;" x1="768.5" x2="1232.5" y1="74.5" y2="74.5"/><ellipse cx="778.5" cy="88.8047" fill="none" rx="3" ry="3" style="stroke:#038048;stroke-width:1.0;"/><text fill="#000000" font-family="sans-serif" font-size="14" lengthAdjust="spacing" textLength="290" x="787.5" y="93.0332">annualInvestmentResults?: InvestmentResult[]</text><line style="stroke:#181818;stroke-width:0.5;" x1="768.5" x2="1232.5" y1="100.1094" y2="100.1094"/><ellipse cx="778.5" cy="114.4141" fill="#84BE84" rx="3" ry="3" style="stroke:#038048;stroke-width:1.0;"/><text fill="#000000" font-family="sans-serif" font-size="14" lengthAdjust="spacing" textLength="440" x="787.5" y="118.6426">onCalculateInvestmentResults(investmentInput: InvestmentInput): void</text></g><!--class UserInputComponent--><g id="elem_UserInputComponent"><rect codeLine="7" fill="#F1F1F1" height="100.8281" id="UserInputComponent" rx="2.5" ry="2.5" style="stroke:#181818;stroke-width:0.5;" width="447" x="153" y="239"/><ellipse cx="305.75" cy="255" fill="#ADD1B2" rx="11" ry="11" style="stroke:#181818;stroke-width:1.0;"/><path d="M308.5156,250.875 Q308.6719,250.6563 308.8594,250.5469 Q309.0469,250.4375 309.2656,250.4375 Q309.6406,250.4375 309.875,250.7031 Q310.1094,250.9531 310.1094,251.5625 L310.1094,253.0156 Q310.1094,253.625 309.875,253.8906 Q309.6406,254.1563 309.2656,254.1563 Q308.9219,254.1563 308.7188,253.9531 Q308.5156,253.7656 308.4063,253.25 Q308.3594,252.8906 308.1719,252.7031 Q307.8438,252.3281 307.2344,252.1094 Q306.625,251.8906 306,251.8906 Q305.2344,251.8906 304.5938,252.2188 Q303.9688,252.5469 303.4688,253.2969 Q302.9844,254.0469 302.9844,255.0781 L302.9844,256.1719 Q302.9844,257.4063 303.875,258.2344 Q304.7656,259.0469 306.3594,259.0469 Q307.2969,259.0469 307.9531,258.7969 Q308.3438,258.6406 308.7656,258.2031 Q309.0313,257.9375 309.1719,257.8594 Q309.3281,257.7813 309.5313,257.7813 Q309.8594,257.7813 310.1094,258.0469 Q310.375,258.2969 310.375,258.6406 Q310.375,258.9844 310.0313,259.3906 Q309.5313,259.9688 308.7344,260.2969 Q307.6563,260.75 306.3594,260.75 Q304.8438,260.75 303.6406,260.125 Q302.6563,259.625 301.9688,258.5625 Q301.2813,257.4844 301.2813,256.2031 L301.2813,255.0469 Q301.2813,253.7188 301.8906,252.5781 Q302.5156,251.4219 303.6094,250.8125 Q304.7031,250.1875 305.9375,250.1875 Q306.6719,250.1875 307.3125,250.3594 Q307.9688,250.5156 308.5156,250.875 Z " fill="#000000"/><text fill="#000000" font-family="sans-serif" font-size="14" lengthAdjust="spacing" textLength="133" x="326.25" y="260.7285">UserInputComponent</text><line style="stroke:#181818;stroke-width:0.5;" x1="154" x2="599" y1="271" y2="271"/><ellipse cx="164" cy="285.3047" fill="none" rx="3" ry="3" style="stroke:#038048;stroke-width:1.0;"/><text fill="#000000" font-family="sans-serif" font-size="14" lengthAdjust="spacing" textLength="206" x="173" y="289.5332">investmentInput: InvestmentInput</text><ellipse cx="164" cy="302.9141" fill="none" rx="3" ry="3" style="stroke:#038048;stroke-width:1.0;"/><text fill="#000000" font-family="sans-serif" font-size="14" lengthAdjust="spacing" textLength="421" x="173" y="307.1426">@Output investmentInputChanged: EventEmitter&lt;InvestmentInput&gt;</text><line style="stroke:#181818;stroke-width:0.5;" x1="154" x2="599" y1="314.2188" y2="314.2188"/><ellipse cx="164" cy="328.5234" fill="#84BE84" rx="3" ry="3" style="stroke:#038048;stroke-width:1.0;"/><text fill="#000000" font-family="sans-serif" font-size="14" lengthAdjust="spacing" textLength="103" x="173" y="332.752">onSubmit(): void</text></g><!--class InvestmentResultsComponent--><g id="elem_InvestmentResultsComponent"><rect codeLine="13" fill="#F1F1F1" height="65.6094" id="InvestmentResultsComponent" rx="2.5" ry="2.5" style="stroke:#181818;stroke-width:0.5;" width="365" x="635" y="256.5"/><ellipse cx="719.25" cy="272.5" fill="#ADD1B2" rx="11" ry="11" style="stroke:#181818;stroke-width:1.0;"/><path d="M722.0156,268.375 Q722.1719,268.1563 722.3594,268.0469 Q722.5469,267.9375 722.7656,267.9375 Q723.1406,267.9375 723.375,268.2031 Q723.6094,268.4531 723.6094,269.0625 L723.6094,270.5156 Q723.6094,271.125 723.375,271.3906 Q723.1406,271.6563 722.7656,271.6563 Q722.4219,271.6563 722.2188,271.4531 Q722.0156,271.2656 721.9063,270.75 Q721.8594,270.3906 721.6719,270.2031 Q721.3438,269.8281 720.7344,269.6094 Q720.125,269.3906 719.5,269.3906 Q718.7344,269.3906 718.0938,269.7188 Q717.4688,270.0469 716.9688,270.7969 Q716.4844,271.5469 716.4844,272.5781 L716.4844,273.6719 Q716.4844,274.9063 717.375,275.7344 Q718.2656,276.5469 719.8594,276.5469 Q720.7969,276.5469 721.4531,276.2969 Q721.8438,276.1406 722.2656,275.7031 Q722.5313,275.4375 722.6719,275.3594 Q722.8281,275.2813 723.0313,275.2813 Q723.3594,275.2813 723.6094,275.5469 Q723.875,275.7969 723.875,276.1406 Q723.875,276.4844 723.5313,276.8906 Q723.0313,277.4688 722.2344,277.7969 Q721.1563,278.25 719.8594,278.25 Q718.3438,278.25 717.1406,277.625 Q716.1563,277.125 715.4688,276.0625 Q714.7813,274.9844 714.7813,273.7031 L714.7813,272.5469 Q714.7813,271.2188 715.3906,270.0781 Q716.0156,268.9219 717.1094,268.3125 Q718.2031,267.6875 719.4375,267.6875 Q720.1719,267.6875 720.8125,267.8594 Q721.4688,268.0156 722.0156,268.375 Z " fill="#000000"/><text fill="#000000" font-family="sans-serif" font-size="14" lengthAdjust="spacing" textLength="188" x="739.75" y="278.2285">InvestmentResultsComponent</text><line style="stroke:#181818;stroke-width:0.5;" x1="636" x2="999" y1="288.5" y2="288.5"/><ellipse cx="646" cy="302.8047" fill="none" rx="3" ry="3" style="stroke:#038048;stroke-width:1.0;"/><text fill="#000000" font-family="sans-serif" font-size="14" lengthAdjust="spacing" textLength="339" x="655" y="307.0332">@Input annualInvestmentResults?: InvestmentResult[]</text><line style="stroke:#181818;stroke-width:0.5;" x1="636" x2="999" y1="314.1094" y2="314.1094"/></g><!--class HeaderComponent--><g id="elem_HeaderComponent"><rect codeLine="17" fill="#F1F1F1" height="48" id="HeaderComponent" rx="2.5" ry="2.5" style="stroke:#181818;stroke-width:0.5;" width="151" x="1035" y="265.5"/><ellipse cx="1050" cy="281.5" fill="#ADD1B2" rx="11" ry="11" style="stroke:#181818;stroke-width:1.0;"/><path d="M1052.7656,277.375 Q1052.9219,277.1563 1053.1094,277.0469 Q1053.2969,276.9375 1053.5156,276.9375 Q1053.8906,276.9375 1054.125,277.2031 Q1054.3594,277.4531 1054.3594,278.0625 L1054.3594,279.5156 Q1054.3594,280.125 1054.125,280.3906 Q1053.8906,280.6563 1053.5156,280.6563 Q1053.1719,280.6563 1052.9688,280.4531 Q1052.7656,280.2656 1052.6563,279.75 Q1052.6094,279.3906 1052.4219,279.2031 Q1052.0938,278.8281 1051.4844,278.6094 Q1050.875,278.3906 1050.25,278.3906 Q1049.4844,278.3906 1048.8438,278.7188 Q1048.2188,279.0469 1047.7188,279.7969 Q1047.2344,280.5469 1047.2344,281.5781 L1047.2344,282.6719 Q1047.2344,283.9063 1048.125,284.7344 Q1049.0156,285.5469 1050.6094,285.5469 Q1051.5469,285.5469 1052.2031,285.2969 Q1052.5938,285.1406 1053.0156,284.7031 Q1053.2813,284.4375 1053.4219,284.3594 Q1053.5781,284.2813 1053.7813,284.2813 Q1054.1094,284.2813 1054.3594,284.5469 Q1054.625,284.7969 1054.625,285.1406 Q1054.625,285.4844 1054.2813,285.8906 Q1053.7813,286.4688 1052.9844,286.7969 Q1051.9063,287.25 1050.6094,287.25 Q1049.0938,287.25 1047.8906,286.625 Q1046.9063,286.125 1046.2188,285.0625 Q1045.5313,283.9844 1045.5313,282.7031 L1045.5313,281.5469 Q1045.5313,280.2188 1046.1406,279.0781 Q1046.7656,277.9219 1047.8594,277.3125 Q1048.9531,276.6875 1050.1875,276.6875 Q1050.9219,276.6875 1051.5625,276.8594 Q1052.2188,277.0156 1052.7656,277.375 Z " fill="#000000"/><text fill="#000000" font-family="sans-serif" font-size="14" lengthAdjust="spacing" textLength="119" x="1064" y="287.2285">HeaderComponent</text><line style="stroke:#181818;stroke-width:0.5;" x1="1036" x2="1185" y1="297.5" y2="297.5"/><line style="stroke:#181818;stroke-width:0.5;" x1="1036" x2="1185" y1="305.5" y2="305.5"/></g><!--class InvestmentInput--><g id="elem_InvestmentInput"><rect codeLine="20" fill="#F1F1F1" height="118.4375" id="InvestmentInput" rx="2.5" ry="2.5" style="stroke:#181818;stroke-width:0.5;" width="193" x="1269" y="25"/><ellipse cx="1311.9" cy="41" fill="#ADD1B2" rx="11" ry="11" style="stroke:#181818;stroke-width:1.0;"/><path d="M1314.6656,36.875 Q1314.8219,36.6563 1315.0094,36.5469 Q1315.1969,36.4375 1315.4156,36.4375 Q1315.7906,36.4375 1316.025,36.7031 Q1316.2594,36.9531 1316.2594,37.5625 L1316.2594,39.0156 Q1316.2594,39.625 1316.025,39.8906 Q1315.7906,40.1563 1315.4156,40.1563 Q1315.0719,40.1563 1314.8688,39.9531 Q1314.6656,39.7656 1314.5563,39.25 Q1314.5094,38.8906 1314.3219,38.7031 Q1313.9938,38.3281 1313.3844,38.1094 Q1312.775,37.8906 1312.15,37.8906 Q1311.3844,37.8906 1310.7438,38.2188 Q1310.1188,38.5469 1309.6188,39.2969 Q1309.1344,40.0469 1309.1344,41.0781 L1309.1344,42.1719 Q1309.1344,43.4063 1310.025,44.2344 Q1310.9156,45.0469 1312.5094,45.0469 Q1313.4469,45.0469 1314.1031,44.7969 Q1314.4938,44.6406 1314.9156,44.2031 Q1315.1813,43.9375 1315.3219,43.8594 Q1315.4781,43.7813 1315.6813,43.7813 Q1316.0094,43.7813 1316.2594,44.0469 Q1316.525,44.2969 1316.525,44.6406 Q1316.525,44.9844 1316.1813,45.3906 Q1315.6813,45.9688 1314.8844,46.2969 Q1313.8063,46.75 1312.5094,46.75 Q1310.9938,46.75 1309.7906,46.125 Q1308.8063,45.625 1308.1188,44.5625 Q1307.4313,43.4844 1307.4313,42.2031 L1307.4313,41.0469 Q1307.4313,39.7188 1308.0406,38.5781 Q1308.6656,37.4219 1309.7594,36.8125 Q1310.8531,36.1875 1312.0875,36.1875 Q1312.8219,36.1875 1313.4625,36.3594 Q1314.1188,36.5156 1314.6656,36.875 Z " fill="#000000"/><text fill="#000000" font-family="sans-serif" font-size="14" lengthAdjust="spacing" textLength="99" x="1332.1" y="46.7285">InvestmentInput</text><line style="stroke:#181818;stroke-width:0.5;" x1="1270" x2="1461" y1="57" y2="57"/><ellipse cx="1280" cy="71.3047" fill="none" rx="3" ry="3" style="stroke:#038048;stroke-width:1.0;"/><text fill="#000000" font-family="sans-serif" font-size="14" lengthAdjust="spacing" textLength="156" x="1289" y="75.5332">initialInvestment: number</text><ellipse cx="1280" cy="88.9141" fill="none" rx="3" ry="3" style="stroke:#038048;stroke-width:1.0;"/><text fill="#000000" font-family="sans-serif" font-size="14" lengthAdjust="spacing" textLength="167" x="1289" y="93.1426">annualInvestment: number</text><ellipse cx="1280" cy="106.5234" fill="none" rx="3" ry="3" style="stroke:#038048;stroke-width:1.0;"/><text fill="#000000" font-family="sans-serif" font-size="14" lengthAdjust="spacing" textLength="156" x="1289" y="110.752">expectedReturn: number</text><ellipse cx="1280" cy="124.1328" fill="none" rx="3" ry="3" style="stroke:#038048;stroke-width:1.0;"/><text fill="#000000" font-family="sans-serif" font-size="14" lengthAdjust="spacing" textLength="108" x="1289" y="128.3613">duration: number</text><line style="stroke:#181818;stroke-width:0.5;" x1="1270" x2="1461" y1="135.4375" y2="135.4375"/></g><!--class InvestmentResult--><g id="elem_InvestmentResult"><rect codeLine="27" fill="#F1F1F1" height="153.6563" id="InvestmentResult" rx="2.5" ry="2.5" style="stroke:#181818;stroke-width:0.5;" width="210" x="1497.5" y="7"/><ellipse cx="1544.25" cy="23" fill="#ADD1B2" rx="11" ry="11" style="stroke:#181818;stroke-width:1.0;"/><path d="M1547.0156,18.875 Q1547.1719,18.6563 1547.3594,18.5469 Q1547.5469,18.4375 1547.7656,18.4375 Q1548.1406,18.4375 1548.375,18.7031 Q1548.6094,18.9531 1548.6094,19.5625 L1548.6094,21.0156 Q1548.6094,21.625 1548.375,21.8906 Q1548.1406,22.1563 1547.7656,22.1563 Q1547.4219,22.1563 1547.2188,21.9531 Q1547.0156,21.7656 1546.9063,21.25 Q1546.8594,20.8906 1546.6719,20.7031 Q1546.3438,20.3281 1545.7344,20.1094 Q1545.125,19.8906 1544.5,19.8906 Q1543.7344,19.8906 1543.0938,20.2188 Q1542.4688,20.5469 1541.9688,21.2969 Q1541.4844,22.0469 1541.4844,23.0781 L1541.4844,24.1719 Q1541.4844,25.4063 1542.375,26.2344 Q1543.2656,27.0469 1544.8594,27.0469 Q1545.7969,27.0469 1546.4531,26.7969 Q1546.8438,26.6406 1547.2656,26.2031 Q1547.5313,25.9375 1547.6719,25.8594 Q1547.8281,25.7813 1548.0313,25.7813 Q1548.3594,25.7813 1548.6094,26.0469 Q1548.875,26.2969 1548.875,26.6406 Q1548.875,26.9844 1548.5313,27.3906 Q1548.0313,27.9688 1547.2344,28.2969 Q1546.1563,28.75 1544.8594,28.75 Q1543.3438,28.75 1542.1406,28.125 Q1541.1563,27.625 1540.4688,26.5625 Q1539.7813,25.4844 1539.7813,24.2031 L1539.7813,23.0469 Q1539.7813,21.7188 1540.3906,20.5781 Q1541.0156,19.4219 1542.1094,18.8125 Q1543.2031,18.1875 1544.4375,18.1875 Q1545.1719,18.1875 1545.8125,18.3594 Q1546.4688,18.5156 1547.0156,18.875 Z " fill="#000000"/><text fill="#000000" font-family="sans-serif" font-size="14" lengthAdjust="spacing" textLength="108" x="1564.75" y="28.7285">InvestmentResult</text><line style="stroke:#181818;stroke-width:0.5;" x1="1498.5" x2="1706.5" y1="39" y2="39"/><ellipse cx="1508.5" cy="53.3047" fill="none" rx="3" ry="3" style="stroke:#038048;stroke-width:1.0;"/><text fill="#000000" font-family="sans-serif" font-size="14" lengthAdjust="spacing" textLength="84" x="1517.5" y="57.5332">year: number</text><ellipse cx="1508.5" cy="70.9141" fill="none" rx="3" ry="3" style="stroke:#038048;stroke-width:1.0;"/><text fill="#000000" font-family="sans-serif" font-size="14" lengthAdjust="spacing" textLength="103" x="1517.5" y="75.1426">interest: number</text><ellipse cx="1508.5" cy="88.5234" fill="none" rx="3" ry="3" style="stroke:#038048;stroke-width:1.0;"/><text fill="#000000" font-family="sans-serif" font-size="14" lengthAdjust="spacing" textLength="160" x="1517.5" y="92.752">valueEndOfYear: number</text><ellipse cx="1508.5" cy="106.1328" fill="none" rx="3" ry="3" style="stroke:#038048;stroke-width:1.0;"/><text fill="#000000" font-family="sans-serif" font-size="14" lengthAdjust="spacing" textLength="167" x="1517.5" y="110.3613">annualInvestment: number</text><ellipse cx="1508.5" cy="123.7422" fill="none" rx="3" ry="3" style="stroke:#038048;stroke-width:1.0;"/><text fill="#000000" font-family="sans-serif" font-size="14" lengthAdjust="spacing" textLength="130" x="1517.5" y="127.9707">totalInterest: number</text><ellipse cx="1508.5" cy="141.3516" fill="none" rx="3" ry="3" style="stroke:#038048;stroke-width:1.0;"/><text fill="#000000" font-family="sans-serif" font-size="14" lengthAdjust="spacing" textLength="184" x="1517.5" y="145.5801">totalAmountInvested: number</text><line style="stroke:#181818;stroke-width:0.5;" x1="1498.5" x2="1706.5" y1="152.6563" y2="152.6563"/></g><!--class AppComponentTemplate--><g id="elem_AppComponentTemplate"><rect codeLine="36" fill="#F1F1F1" height="100.8281" id="AppComponentTemplate" rx="2.5" ry="2.5" style="stroke:#181818;stroke-width:0.5;" width="551" x="1221" y="239"/><ellipse cx="1428.25" cy="255" fill="#ADD1B2" rx="11" ry="11" style="stroke:#181818;stroke-width:1.0;"/><path d="M1431.0156,250.875 Q1431.1719,250.6563 1431.3594,250.5469 Q1431.5469,250.4375 1431.7656,250.4375 Q1432.1406,250.4375 1432.375,250.7031 Q1432.6094,250.9531 1432.6094,251.5625 L1432.6094,253.0156 Q1432.6094,253.625 1432.375,253.8906 Q1432.1406,254.1563 1431.7656,254.1563 Q1431.4219,254.1563 1431.2188,253.9531 Q1431.0156,253.7656 1430.9063,253.25 Q1430.8594,252.8906 1430.6719,252.7031 Q1430.3438,252.3281 1429.7344,252.1094 Q1429.125,251.8906 1428.5,251.8906 Q1427.7344,251.8906 1427.0938,252.2188 Q1426.4688,252.5469 1425.9688,253.2969 Q1425.4844,254.0469 1425.4844,255.0781 L1425.4844,256.1719 Q1425.4844,257.4063 1426.375,258.2344 Q1427.2656,259.0469 1428.8594,259.0469 Q1429.7969,259.0469 1430.4531,258.7969 Q1430.8438,258.6406 1431.2656,258.2031 Q1431.5313,257.9375 1431.6719,257.8594 Q1431.8281,257.7813 1432.0313,257.7813 Q1432.3594,257.7813 1432.6094,258.0469 Q1432.875,258.2969 1432.875,258.6406 Q1432.875,258.9844 1432.5313,259.3906 Q1432.0313,259.9688 1431.2344,260.2969 Q1430.1563,260.75 1428.8594,260.75 Q1427.3438,260.75 1426.1406,260.125 Q1425.1563,259.625 1424.4688,258.5625 Q1423.7813,257.4844 1423.7813,256.2031 L1423.7813,255.0469 Q1423.7813,253.7188 1424.3906,252.5781 Q1425.0156,251.4219 1426.1094,250.8125 Q1427.2031,250.1875 1428.4375,250.1875 Q1429.1719,250.1875 1429.8125,250.3594 Q1430.4688,250.5156 1431.0156,250.875 Z " fill="#000000"/><text fill="#000000" font-family="sans-serif" font-size="14" lengthAdjust="spacing" textLength="128" x="1448.75" y="260.7285">app.component.html</text><line style="stroke:#181818;stroke-width:0.5;" x1="1222" x2="1771" y1="271" y2="271"/><ellipse cx="1232" cy="285.3047" fill="none" rx="3" ry="3" style="stroke:#038048;stroke-width:1.0;"/><text fill="#000000" font-family="sans-serif" font-size="14" lengthAdjust="spacing" textLength="74" x="1241" y="289.5332">app-header</text><ellipse cx="1232" cy="302.9141" fill="none" rx="3" ry="3" style="stroke:#038048;stroke-width:1.0;"/><text fill="#000000" font-family="sans-serif" font-size="14" lengthAdjust="spacing" textLength="490" x="1241" y="307.1426">app-investment-results [annualInvestmentResults]="annualInvestmentResults"</text><line style="stroke:#181818;stroke-width:0.5;" x1="1222" x2="1771" y1="314.2188" y2="314.2188"/><ellipse cx="1232" cy="328.5234" fill="#84BE84" rx="3" ry="3" style="stroke:#038048;stroke-width:1.0;"/><text fill="#000000" font-family="sans-serif" font-size="14" lengthAdjust="spacing" textLength="525" x="1241" y="332.752">app-user-input (investmentInputChanged)="onCalculateInvestmentResults($event)"</text></g><!--class UserInputComponentTemplate--><g id="elem_UserInputComponentTemplate"><rect codeLine="42" fill="#F1F1F1" height="153.6563" id="UserInputComponentTemplate" rx="2.5" ry="2.5" style="stroke:#181818;stroke-width:0.5;" width="365" x="7" y="444"/><ellipse cx="101.25" cy="460" fill="#ADD1B2" rx="11" ry="11" style="stroke:#181818;stroke-width:1.0;"/><path d="M104.0156,455.875 Q104.1719,455.6563 104.3594,455.5469 Q104.5469,455.4375 104.7656,455.4375 Q105.1406,455.4375 105.375,455.7031 Q105.6094,455.9531 105.6094,456.5625 L105.6094,458.0156 Q105.6094,458.625 105.375,458.8906 Q105.1406,459.1563 104.7656,459.1563 Q104.4219,459.1563 104.2188,458.9531 Q104.0156,458.7656 103.9063,458.25 Q103.8594,457.8906 103.6719,457.7031 Q103.3438,457.3281 102.7344,457.1094 Q102.125,456.8906 101.5,456.8906 Q100.7344,456.8906 100.0938,457.2188 Q99.4688,457.5469 98.9688,458.2969 Q98.4844,459.0469 98.4844,460.0781 L98.4844,461.1719 Q98.4844,462.4063 99.375,463.2344 Q100.2656,464.0469 101.8594,464.0469 Q102.7969,464.0469 103.4531,463.7969 Q103.8438,463.6406 104.2656,463.2031 Q104.5313,462.9375 104.6719,462.8594 Q104.8281,462.7813 105.0313,462.7813 Q105.3594,462.7813 105.6094,463.0469 Q105.875,463.2969 105.875,463.6406 Q105.875,463.9844 105.5313,464.3906 Q105.0313,464.9688 104.2344,465.2969 Q103.1563,465.75 101.8594,465.75 Q100.3438,465.75 99.1406,465.125 Q98.1563,464.625 97.4688,463.5625 Q96.7813,462.4844 96.7813,461.2031 L96.7813,460.0469 Q96.7813,458.7188 97.3906,457.5781 Q98.0156,456.4219 99.1094,455.8125 Q100.2031,455.1875 101.4375,455.1875 Q102.1719,455.1875 102.8125,455.3594 Q103.4688,455.5156 104.0156,455.875 Z " fill="#000000"/><text fill="#000000" font-family="sans-serif" font-size="14" lengthAdjust="spacing" textLength="168" x="121.75" y="465.7285">user-input.component.html</text><line style="stroke:#181818;stroke-width:0.5;" x1="8" x2="371" y1="476" y2="476"/><ellipse cx="18" cy="490.3047" fill="none" rx="3" ry="3" style="stroke:#038048;stroke-width:1.0;"/><text fill="#000000" font-family="sans-serif" font-size="14" lengthAdjust="spacing" textLength="130" x="27" y="494.5332">button type="submit"</text><line style="stroke:#181818;stroke-width:0.5;" x1="8" x2="371" y1="501.6094" y2="501.6094"/><ellipse cx="18" cy="515.9141" fill="#84BE84" rx="3" ry="3" style="stroke:#038048;stroke-width:1.0;"/><text fill="#000000" font-family="sans-serif" font-size="14" lengthAdjust="spacing" textLength="188" x="27" y="520.1426">form (ngSubmit)="onSubmit()"</text><ellipse cx="18" cy="533.5234" fill="#84BE84" rx="3" ry="3" style="stroke:#038048;stroke-width:1.0;"/><text fill="#000000" font-family="sans-serif" font-size="14" lengthAdjust="spacing" textLength="328" x="27" y="537.752">input [(ngModel)]="investmentInput.initialInvestment"</text><ellipse cx="18" cy="551.1328" fill="#84BE84" rx="3" ry="3" style="stroke:#038048;stroke-width:1.0;"/><text fill="#000000" font-family="sans-serif" font-size="14" lengthAdjust="spacing" textLength="339" x="27" y="555.3613">input [(ngModel)]="investmentInput.annualInvestment"</text><ellipse cx="18" cy="568.7422" fill="#84BE84" rx="3" ry="3" style="stroke:#038048;stroke-width:1.0;"/><text fill="#000000" font-family="sans-serif" font-size="14" lengthAdjust="spacing" textLength="328" x="27" y="572.9707">input [(ngModel)]="investmentInput.expectedReturn"</text><ellipse cx="18" cy="586.3516" fill="#84BE84" rx="3" ry="3" style="stroke:#038048;stroke-width:1.0;"/><text fill="#000000" font-family="sans-serif" font-size="14" lengthAdjust="spacing" textLength="280" x="27" y="590.5801">input [(ngModel)]="investmentInput.duration"</text></g><!--class InvestmentResultsComponentTemplate--><g id="elem_InvestmentResultsComponentTemplate"><rect codeLine="51" fill="#F1F1F1" height="206.4844" id="InvestmentResultsComponentTemplate" rx="2.5" ry="2.5" style="stroke:#181818;stroke-width:0.5;" width="351" x="612" y="418"/><ellipse cx="673.75" cy="434" fill="#ADD1B2" rx="11" ry="11" style="stroke:#181818;stroke-width:1.0;"/><path d="M676.5156,429.875 Q676.6719,429.6563 676.8594,429.5469 Q677.0469,429.4375 677.2656,429.4375 Q677.6406,429.4375 677.875,429.7031 Q678.1094,429.9531 678.1094,430.5625 L678.1094,432.0156 Q678.1094,432.625 677.875,432.8906 Q677.6406,433.1563 677.2656,433.1563 Q676.9219,433.1563 676.7188,432.9531 Q676.5156,432.7656 676.4063,432.25 Q676.3594,431.8906 676.1719,431.7031 Q675.8438,431.3281 675.2344,431.1094 Q674.625,430.8906 674,430.8906 Q673.2344,430.8906 672.5938,431.2188 Q671.9688,431.5469 671.4688,432.2969 Q670.9844,433.0469 670.9844,434.0781 L670.9844,435.1719 Q670.9844,436.4063 671.875,437.2344 Q672.7656,438.0469 674.3594,438.0469 Q675.2969,438.0469 675.9531,437.7969 Q676.3438,437.6406 676.7656,437.2031 Q677.0313,436.9375 677.1719,436.8594 Q677.3281,436.7813 677.5313,436.7813 Q677.8594,436.7813 678.1094,437.0469 Q678.375,437.2969 678.375,437.6406 Q678.375,437.9844 678.0313,438.3906 Q677.5313,438.9688 676.7344,439.2969 Q675.6563,439.75 674.3594,439.75 Q672.8438,439.75 671.6406,439.125 Q670.6563,438.625 669.9688,437.5625 Q669.2813,436.4844 669.2813,435.2031 L669.2813,434.0469 Q669.2813,432.7188 669.8906,431.5781 Q670.5156,430.4219 671.6094,429.8125 Q672.7031,429.1875 673.9375,429.1875 Q674.6719,429.1875 675.3125,429.3594 Q675.9688,429.5156 676.5156,429.875 Z " fill="#000000"/><text fill="#000000" font-family="sans-serif" font-size="14" lengthAdjust="spacing" textLength="219" x="694.25" y="439.7285">investment-results.component.html</text><line style="stroke:#181818;stroke-width:0.5;" x1="613" x2="962" y1="450" y2="450"/><ellipse cx="623" cy="464.3047" fill="none" rx="3" ry="3" style="stroke:#038048;stroke-width:1.0;"/><text fill="#000000" font-family="sans-serif" font-size="14" lengthAdjust="spacing" textLength="31" x="632" y="468.5332">table</text><ellipse cx="623" cy="481.9141" fill="none" rx="3" ry="3" style="stroke:#038048;stroke-width:1.0;"/><text fill="#000000" font-family="sans-serif" font-size="14" lengthAdjust="spacing" textLength="36" x="632" y="486.1426">thead</text><ellipse cx="623" cy="499.5234" fill="none" rx="3" ry="3" style="stroke:#038048;stroke-width:1.0;"/><text fill="#000000" font-family="sans-serif" font-size="14" lengthAdjust="spacing" textLength="325" x="632" y="503.752">tbody *ngFor="let data of annualInvestmentResults"</text><ellipse cx="623" cy="517.1328" fill="none" rx="3" ry="3" style="stroke:#038048;stroke-width:1.0;"/><text fill="#000000" font-family="sans-serif" font-size="14" lengthAdjust="spacing" textLength="104" x="632" y="521.3613">td {{ data.year }}</text><ellipse cx="623" cy="534.7422" fill="none" rx="3" ry="3" style="stroke:#038048;stroke-width:1.0;"/><text fill="#000000" font-family="sans-serif" font-size="14" lengthAdjust="spacing" textLength="235" x="632" y="538.9707">td {{ data.interest | currency : 'EUR' }}</text><ellipse cx="623" cy="552.3516" fill="none" rx="3" ry="3" style="stroke:#038048;stroke-width:1.0;"/><text fill="#000000" font-family="sans-serif" font-size="14" lengthAdjust="spacing" textLength="292" x="632" y="556.5801">td {{ data.valueEndOfYear | currency : 'EUR' }}</text><ellipse cx="623" cy="569.9609" fill="none" rx="3" ry="3" style="stroke:#038048;stroke-width:1.0;"/><text fill="#000000" font-family="sans-serif" font-size="14" lengthAdjust="spacing" textLength="299" x="632" y="574.1895">td {{ data.annualInvestment | currency : 'EUR' }}</text><ellipse cx="623" cy="587.5703" fill="none" rx="3" ry="3" style="stroke:#038048;stroke-width:1.0;"/><text fill="#000000" font-family="sans-serif" font-size="14" lengthAdjust="spacing" textLength="262" x="632" y="591.7988">td {{ data.totalInterest | currency : 'EUR' }}</text><ellipse cx="623" cy="605.1797" fill="none" rx="3" ry="3" style="stroke:#038048;stroke-width:1.0;"/><text fill="#000000" font-family="sans-serif" font-size="14" lengthAdjust="spacing" textLength="316" x="632" y="609.4082">td {{ data.totalAmountInvested | currency : 'EUR' }}</text><line style="stroke:#181818;stroke-width:0.5;" x1="613" x2="962" y1="616.4844" y2="616.4844"/></g><!--class HeaderComponentTemplate--><g id="elem_HeaderComponentTemplate"><rect codeLine="63" fill="#F1F1F1" height="100.8281" id="HeaderComponentTemplate" rx="2.5" ry="2.5" style="stroke:#181818;stroke-width:0.5;" width="283" x="998" y="470.5"/><ellipse cx="1060.75" cy="486.5" fill="#ADD1B2" rx="11" ry="11" style="stroke:#181818;stroke-width:1.0;"/><path d="M1063.5156,482.375 Q1063.6719,482.1563 1063.8594,482.0469 Q1064.0469,481.9375 1064.2656,481.9375 Q1064.6406,481.9375 1064.875,482.2031 Q1065.1094,482.4531 1065.1094,483.0625 L1065.1094,484.5156 Q1065.1094,485.125 1064.875,485.3906 Q1064.6406,485.6563 1064.2656,485.6563 Q1063.9219,485.6563 1063.7188,485.4531 Q1063.5156,485.2656 1063.4063,484.75 Q1063.3594,484.3906 1063.1719,484.2031 Q1062.8438,483.8281 1062.2344,483.6094 Q1061.625,483.3906 1061,483.3906 Q1060.2344,483.3906 1059.5938,483.7188 Q1058.9688,484.0469 1058.4688,484.7969 Q1057.9844,485.5469 1057.9844,486.5781 L1057.9844,487.6719 Q1057.9844,488.9063 1058.875,489.7344 Q1059.7656,490.5469 1061.3594,490.5469 Q1062.2969,490.5469 1062.9531,490.2969 Q1063.3438,490.1406 1063.7656,489.7031 Q1064.0313,489.4375 1064.1719,489.3594 Q1064.3281,489.2813 1064.5313,489.2813 Q1064.8594,489.2813 1065.1094,489.5469 Q1065.375,489.7969 1065.375,490.1406 Q1065.375,490.4844 1065.0313,490.8906 Q1064.5313,491.4688 1063.7344,491.7969 Q1062.6563,492.25 1061.3594,492.25 Q1059.8438,492.25 1058.6406,491.625 Q1057.6563,491.125 1056.9688,490.0625 Q1056.2813,488.9844 1056.2813,487.7031 L1056.2813,486.5469 Q1056.2813,485.2188 1056.8906,484.0781 Q1057.5156,482.9219 1058.6094,482.3125 Q1059.7031,481.6875 1060.9375,481.6875 Q1061.6719,481.6875 1062.3125,481.8594 Q1062.9688,482.0156 1063.5156,482.375 Z " fill="#000000"/><text fill="#000000" font-family="sans-serif" font-size="14" lengthAdjust="spacing" textLength="149" x="1081.25" y="492.2285">header.component.html</text><line style="stroke:#181818;stroke-width:0.5;" x1="999" x2="1280" y1="502.5" y2="502.5"/><ellipse cx="1009" cy="516.8047" fill="none" rx="3" ry="3" style="stroke:#038048;stroke-width:1.0;"/><text fill="#000000" font-family="sans-serif" font-size="14" lengthAdjust="spacing" textLength="45" x="1018" y="521.0332">header</text><ellipse cx="1009" cy="534.4141" fill="none" rx="3" ry="3" style="stroke:#038048;stroke-width:1.0;"/><text fill="#000000" font-family="sans-serif" font-size="14" lengthAdjust="spacing" textLength="257" x="1018" y="538.6426">img src="investment-calculator-logo.png"</text><ellipse cx="1009" cy="552.0234" fill="none" rx="3" ry="3" style="stroke:#038048;stroke-width:1.0;"/><text fill="#000000" font-family="sans-serif" font-size="14" lengthAdjust="spacing" textLength="156" x="1018" y="556.252">h1 Investment Calculator</text><line style="stroke:#181818;stroke-width:0.5;" x1="999" x2="1280" y1="563.3281" y2="563.3281"/></g><!--class EventEmitter--><g id="elem_EventEmitter"><rect fill="#F1F1F1" height="48" id="EventEmitter" rx="2.5" ry="2.5" style="stroke:#181818;stroke-width:0.5;" width="112" x="407.5" y="497"/><ellipse cx="422.5" cy="513" fill="#ADD1B2" rx="11" ry="11" style="stroke:#181818;stroke-width:1.0;"/><path d="M425.2656,508.875 Q425.4219,508.6563 425.6094,508.5469 Q425.7969,508.4375 426.0156,508.4375 Q426.3906,508.4375 426.625,508.7031 Q426.8594,508.9531 426.8594,509.5625 L426.8594,511.0156 Q426.8594,511.625 426.625,511.8906 Q426.3906,512.1563 426.0156,512.1563 Q425.6719,512.1563 425.4688,511.9531 Q425.2656,511.7656 425.1563,511.25 Q425.1094,510.8906 424.9219,510.7031 Q424.5938,510.3281 423.9844,510.1094 Q423.375,509.8906 422.75,509.8906 Q421.9844,509.8906 421.3438,510.2188 Q420.7188,510.5469 420.2188,511.2969 Q419.7344,512.0469 419.7344,513.0781 L419.7344,514.1719 Q419.7344,515.4063 420.625,516.2344 Q421.5156,517.0469 423.1094,517.0469 Q424.0469,517.0469 424.7031,516.7969 Q425.0938,516.6406 425.5156,516.2031 Q425.7813,515.9375 425.9219,515.8594 Q426.0781,515.7813 426.2813,515.7813 Q426.6094,515.7813 426.8594,516.0469 Q427.125,516.2969 427.125,516.6406 Q427.125,516.9844 426.7813,517.3906 Q426.2813,517.9688 425.4844,518.2969 Q424.4063,518.75 423.1094,518.75 Q421.5938,518.75 420.3906,518.125 Q419.4063,517.625 418.7188,516.5625 Q418.0313,515.4844 418.0313,514.2031 L418.0313,513.0469 Q418.0313,511.7188 418.6406,510.5781 Q419.2656,509.4219 420.3594,508.8125 Q421.4531,508.1875 422.6875,508.1875 Q423.4219,508.1875 424.0625,508.3594 Q424.7188,508.5156 425.2656,508.875 Z " fill="#000000"/><text fill="#000000" font-family="sans-serif" font-size="14" lengthAdjust="spacing" textLength="80" x="436.5" y="518.7285">EventEmitter</text><line style="stroke:#181818;stroke-width:0.5;" x1="408.5" x2="518.5" y1="529" y2="529"/><line style="stroke:#181818;stroke-width:0.5;" x1="408.5" x2="518.5" y1="537" y2="537"/></g><!--link AppComponent to AppComponentTemplate--><g id="link_AppComponent_AppComponentTemplate"><path codeLine="69" d="M1099.38,125.57 C1178.8,158.15 1285.109,201.7725 1369.879,236.5525 " fill="none" id="AppComponent-to-AppComponentTemplate" style="stroke:#181818;stroke-width:1.0;"/><polygon fill="#181818" points="1375.43,238.83,1368.6219,231.7131,1370.8042,236.9321,1365.5852,239.1144,1375.43,238.83" style="stroke:#181818;stroke-width:1.0;"/><text fill="#000000" font-family="sans-serif" font-size="13" lengthAdjust="spacing" textLength="82" x="1294.5" y="205.4951">uses template</text></g><!--link UserInputComponent to UserInputComponentTemplate--><g id="link_UserInputComponent_UserInputComponentTemplate"><path codeLine="70" d="M336.15,340.02 C311.46,370.32 283.1496,405.0683 255.2796,439.2783 " fill="none" id="UserInputComponent-to-UserInputComponentTemplate" style="stroke:#181818;stroke-width:1.0;"/><polygon fill="#181818" points="251.49,443.93,260.2756,439.4788,254.648,440.0536,254.0733,434.426,251.49,443.93" style="stroke:#181818;stroke-width:1.0;"/><text fill="#000000" font-family="sans-serif" font-size="13" lengthAdjust="spacing" textLength="82" x="312.5" y="384.4951">uses template</text></g><!--link InvestmentResultsComponent to InvestmentResultsComponentTemplate--><g id="link_InvestmentResultsComponent_InvestmentResultsComponentTemplate"><path codeLine="71" d="M813.27,322.89 C810.01,347.79 806.1088,377.6708 801.6188,411.9708 " fill="none" id="InvestmentResultsComponent-to-InvestmentResultsComponentTemplate" style="stroke:#181818;stroke-width:1.0;"/><polygon fill="#181818" points="800.84,417.92,805.9743,409.5153,801.489,412.9623,798.042,408.4769,800.84,417.92" style="stroke:#181818;stroke-width:1.0;"/><text fill="#000000" font-family="sans-serif" font-size="13" lengthAdjust="spacing" textLength="82" x="808.5" y="384.4951">uses template</text></g><!--link HeaderComponent to HeaderComponentTemplate--><g id="link_HeaderComponent_HeaderComponentTemplate"><path codeLine="72" d="M1113.44,313.77 C1118.05,350.23 1126.3281,415.7273 1132.4481,464.1773 " fill="none" id="HeaderComponent-to-HeaderComponentTemplate" style="stroke:#181818;stroke-width:1.0;"/><polygon fill="#181818" points="1133.2,470.13,1136.0406,460.6997,1132.5734,465.1694,1128.1037,461.7022,1133.2,470.13" style="stroke:#181818;stroke-width:1.0;"/><text fill="#000000" font-family="sans-serif" font-size="13" lengthAdjust="spacing" textLength="82" x="1123.5" y="384.4951">uses template</text></g><!--link AppComponent to HeaderComponent--><g id="link_AppComponent_HeaderComponent"><path codeLine="74" d="M1022.5,125.69 C1045.13,167.56 1076.7472,226.0516 1095.1072,260.0216 " fill="none" id="AppComponent-to-HeaderComponent" style="stroke:#181818;stroke-width:1.0;"/><polygon fill="#181818" points="1097.96,265.3,1097.1997,255.4805,1095.5826,260.9014,1090.1618,259.2843,1097.96,265.3" style="stroke:#181818;stroke-width:1.0;"/><text fill="#000000" font-family="sans-serif" font-size="13" lengthAdjust="spacing" textLength="43" x="1066.5" y="205.4951">imports</text></g><!--link AppComponent to UserInputComponent--><g id="link_AppComponent_UserInputComponent"><path codeLine="75" d="M876.1,125.57 C776.1,158.18 640.9143,202.2697 534.2343,237.0597 " fill="none" id="AppComponent-to-UserInputComponent" style="stroke:#181818;stroke-width:1.0;"/><polygon fill="#181818" points="528.53,238.92,538.3267,239.9325,533.2836,237.3698,535.8463,232.3267,528.53,238.92" style="stroke:#181818;stroke-width:1.0;"/><text fill="#000000" font-family="sans-serif" font-size="13" lengthAdjust="spacing" textLength="43" x="671.5" y="205.4951">imports</text></g><!--link AppComponent to InvestmentResultsComponent--><g id="link_AppComponent_InvestmentResultsComponent"><path codeLine="76" d="M963.91,125.69 C929.38,164.08 882.3221,216.4187 850.5221,251.7787 " fill="none" id="AppComponent-to-InvestmentResultsComponent" style="stroke:#181818;stroke-width:1.0;"/><polygon fill="#181818" points="846.51,256.24,855.5024,252.2228,849.8534,252.5223,849.554,246.8734,846.51,256.24" style="stroke:#181818;stroke-width:1.0;"/><text fill="#000000" font-family="sans-serif" font-size="13" lengthAdjust="spacing" textLength="43" x="905.5" y="205.4951">imports</text></g><!--link UserInputComponent to EventEmitter--><g id="link_UserInputComponent_EventEmitter"><path codeLine="77" d="M395.27,340.02 C413.65,388.51 438.7329,454.6597 452.5829,491.1897 " fill="none" id="UserInputComponent-to-EventEmitter" style="stroke:#181818;stroke-width:1.0;"/><polygon fill="#181818" points="454.71,496.8,455.2596,486.9665,452.9374,492.1247,447.7792,489.8026,454.71,496.8" style="stroke:#181818;stroke-width:1.0;"/></g><!--SRC=[bLPDZvim4BtpAqQeqYPT4QbNrEo7ebJTGxLIsZrKqHuSc10ai2rZHutI_FTY4u8n7sLlPcRUCFFc3IRAI570C-ShbdD6aKeuUm3tX595iXTwn4BcfNM3XSfayHY2Qzk-wtX6LoIBL4OaTa2pz6PveLn9EuSnp4CuiZJsBfuNcNhU2XJ6urJrlqGwvkbLoV88JkpgG6Y2SGZhOsbQvwcKABuw-8UgbPzgL_fddR8wdJdbFPaay27kRic_8ubHs1bxtbkzuCf5AbFxDI5GbUzGz8tFzk4VZf74U8DI2MfxOYM8J5bZ6-oyAk64HDZub9QSbd6sxKWoXMiQl-v_Ez5ZDKecjQkRpZYUSwOq5ngfH-fMwnFE5r7DvE8Wyym7qfRvByovLkjLxfm71pE0-acL4WnIG_UiNqhpfJ-g-a-ebJRtwunDba1K8R0TaChxqX_m-5QNJObzpNPtgDtodeaSPZIfn6wQgNNlLyFKlM_BY1yincnUrkJmiEX8S2hGRMughYtTgQXQrYP-fwHa5EI9uz8lJCCsfzqXzN4x_25eSop9BaDpqE8oXnsBJ_2P9j-OMFePIeY99C3sC3XmZOhXV3QH2xrpSBaurdhpu2z4IWYaqGb2k5k_RUwwmUsLd0HnYvi4QYtnT4HxkmTmpSIgjUsRalD5RO-csVOqJw0GaQsR8BgkDHD1nXAsu3GnWpXyiMOFgrkKhgTrYGR1G__d9eHoRGkGrsUlvwhJs97jTJECt4ewqmIjkXdTgqYd6IBJnNPfSBE5a9P78OjkQ0yP8z4ZZJUe0Nxjlm3l7m00]--></g></svg>