<?xml version="1.0" encoding="us-ascii" standalone="no"?><svg xmlns="http://www.w3.org/2000/svg" xmlns:xlink="http://www.w3.org/1999/xlink" contentStyleType="text/css" height="631px" preserveAspectRatio="none" style="width:1728px;height:631px;background:#FFFFFF;" version="1.1" viewBox="0 0 1728 631" width="1728px" zoomAndPan="magnify"><defs/><g><!--class AppComponent--><g id="elem_AppComponent"><rect codeLine="2" fill="#F1F1F1" height="83.2188" id="AppComponent" rx="2.5" ry="2.5" style="stroke:#181818;stroke-width:0.5;" width="466" x="725.5" y="42.5"/><ellipse cx="905.25" cy="58.5" fill="#ADD1B2" rx="11" ry="11" style="stroke:#181818;stroke-width:1.0;"/><path d="M908.0156,54.375 Q908.1719,54.1563 908.3594,54.0469 Q908.5469,53.9375 908.7656,53.9375 Q909.1406,53.9375 909.375,54.2031 Q909.6094,54.4531 909.6094,55.0625 L909.6094,56.5156 Q909.6094,57.125 909.375,57.3906 Q909.1406,57.6563 908.7656,57.6563 Q908.4219,57.6563 908.2188,57.4531 Q908.0156,57.2656 907.9063,56.75 Q907.8594,56.3906 907.6719,56.2031 Q907.3438,55.8281 906.7344,55.6094 Q906.125,55.3906 905.5,55.3906 Q904.7344,55.3906 904.0938,55.7188 Q903.4688,56.0469 902.9688,56.7969 Q902.4844,57.5469 902.4844,58.5781 L902.4844,59.6719 Q902.4844,60.9063 903.375,61.7344 Q904.2656,62.5469 905.8594,62.5469 Q906.7969,62.5469 907.4531,62.2969 Q907.8438,62.1406 908.2656,61.7031 Q908.5313,61.4375 908.6719,61.3594 Q908.8281,61.2813 909.0313,61.2813 Q909.3594,61.2813 909.6094,61.5469 Q909.875,61.7969 909.875,62.1406 Q909.875,62.4844 909.5313,62.8906 Q909.0313,63.4688 908.2344,63.7969 Q907.1563,64.25 905.8594,64.25 Q904.3438,64.25 903.1406,63.625 Q902.1563,63.125 901.4688,62.0625 Q900.7813,60.9844 900.7813,59.7031 L900.7813,58.5469 Q900.7813,57.2188 901.3906,56.0781 Q902.0156,54.9219 903.1094,54.3125 Q904.2031,53.6875 905.4375,53.6875 Q906.1719,53.6875 906.8125,53.8594 Q907.4688,54.0156 908.0156,54.375 Z " fill="#000000"/><text fill="#000000" font-family="sans-serif" font-size="14" lengthAdjust="spacing" textLength="98" x="925.75" y="64.2285">AppComponent</text><line style="stroke:#181818;stroke-width:0.5;" x1="726.5" x2="1190.5" y1="74.5" y2="74.5"/><ellipse cx="736.5" cy="88.8047" fill="none" rx="3" ry="3" style="stroke:#038048;stroke-width:1.0;"/><text fill="#000000" font-family="sans-serif" font-size="14" lengthAdjust="spacing" textLength="290" x="745.5" y="93.0332">annualInvestmentResults?: InvestmentResult[]</text><line style="stroke:#181818;stroke-width:0.5;" x1="726.5" x2="1190.5" y1="100.1094" y2="100.1094"/><ellipse cx="736.5" cy="114.4141" fill="#84BE84" rx="3" ry="3" style="stroke:#038048;stroke-width:1.0;"/><text fill="#000000" font-family="sans-serif" font-size="14" lengthAdjust="spacing" textLength="440" x="745.5" y="118.6426">onCalculateInvestmentResults(investmentInput: InvestmentInput): void</text></g><!--class UserInputComponent--><g id="elem_UserInputComponent"><rect codeLine="7" fill="#F1F1F1" height="100.8281" id="UserInputComponent" rx="2.5" ry="2.5" style="stroke:#181818;stroke-width:0.5;" width="386" x="211.5" y="239"/><ellipse cx="333.75" cy="255" fill="#ADD1B2" rx="11" ry="11" style="stroke:#181818;stroke-width:1.0;"/><path d="M336.5156,250.875 Q336.6719,250.6563 336.8594,250.5469 Q337.0469,250.4375 337.2656,250.4375 Q337.6406,250.4375 337.875,250.7031 Q338.1094,250.9531 338.1094,251.5625 L338.1094,253.0156 Q338.1094,253.625 337.875,253.8906 Q337.6406,254.1563 337.2656,254.1563 Q336.9219,254.1563 336.7188,253.9531 Q336.5156,253.7656 336.4063,253.25 Q336.3594,252.8906 336.1719,252.7031 Q335.8438,252.3281 335.2344,252.1094 Q334.625,251.8906 334,251.8906 Q333.2344,251.8906 332.5938,252.2188 Q331.9688,252.5469 331.4688,253.2969 Q330.9844,254.0469 330.9844,255.0781 L330.9844,256.1719 Q330.9844,257.4063 331.875,258.2344 Q332.7656,259.0469 334.3594,259.0469 Q335.2969,259.0469 335.9531,258.7969 Q336.3438,258.6406 336.7656,258.2031 Q337.0313,257.9375 337.1719,257.8594 Q337.3281,257.7813 337.5313,257.7813 Q337.8594,257.7813 338.1094,258.0469 Q338.375,258.2969 338.375,258.6406 Q338.375,258.9844 338.0313,259.3906 Q337.5313,259.9688 336.7344,260.2969 Q335.6563,260.75 334.3594,260.75 Q332.8438,260.75 331.6406,260.125 Q330.6563,259.625 329.9688,258.5625 Q329.2813,257.4844 329.2813,256.2031 L329.2813,255.0469 Q329.2813,253.7188 329.8906,252.5781 Q330.5156,251.4219 331.6094,250.8125 Q332.7031,250.1875 333.9375,250.1875 Q334.6719,250.1875 335.3125,250.3594 Q335.9688,250.5156 336.5156,250.875 Z " fill="#000000"/><text fill="#000000" font-family="sans-serif" font-size="14" lengthAdjust="spacing" textLength="133" x="354.25" y="260.7285">UserInputComponent</text><line style="stroke:#181818;stroke-width:0.5;" x1="212.5" x2="596.5" y1="271" y2="271"/><ellipse cx="222.5" cy="285.3047" fill="none" rx="3" ry="3" style="stroke:#038048;stroke-width:1.0;"/><text fill="#000000" font-family="sans-serif" font-size="14" lengthAdjust="spacing" textLength="206" x="231.5" y="289.5332">investmentInput: InvestmentInput</text><ellipse cx="222.5" cy="302.9141" fill="none" rx="3" ry="3" style="stroke:#038048;stroke-width:1.0;"/><text fill="#000000" font-family="sans-serif" font-size="14" lengthAdjust="spacing" textLength="360" x="231.5" y="307.1426">investmentInputChanged: EventEmitter&lt;InvestmentInput&gt;</text><line style="stroke:#181818;stroke-width:0.5;" x1="212.5" x2="596.5" y1="314.2188" y2="314.2188"/><ellipse cx="222.5" cy="328.5234" fill="#84BE84" rx="3" ry="3" style="stroke:#038048;stroke-width:1.0;"/><text fill="#000000" font-family="sans-serif" font-size="14" lengthAdjust="spacing" textLength="103" x="231.5" y="332.752">onSubmit(): void</text></g><!--class InvestmentResultsComponent--><g id="elem_InvestmentResultsComponent"><rect codeLine="13" fill="#F1F1F1" height="65.6094" id="InvestmentResultsComponent" rx="2.5" ry="2.5" style="stroke:#181818;stroke-width:0.5;" width="316" x="632.5" y="256.5"/><ellipse cx="692.25" cy="272.5" fill="#ADD1B2" rx="11" ry="11" style="stroke:#181818;stroke-width:1.0;"/><path d="M695.0156,268.375 Q695.1719,268.1563 695.3594,268.0469 Q695.5469,267.9375 695.7656,267.9375 Q696.1406,267.9375 696.375,268.2031 Q696.6094,268.4531 696.6094,269.0625 L696.6094,270.5156 Q696.6094,271.125 696.375,271.3906 Q696.1406,271.6563 695.7656,271.6563 Q695.4219,271.6563 695.2188,271.4531 Q695.0156,271.2656 694.9063,270.75 Q694.8594,270.3906 694.6719,270.2031 Q694.3438,269.8281 693.7344,269.6094 Q693.125,269.3906 692.5,269.3906 Q691.7344,269.3906 691.0938,269.7188 Q690.4688,270.0469 689.9688,270.7969 Q689.4844,271.5469 689.4844,272.5781 L689.4844,273.6719 Q689.4844,274.9063 690.375,275.7344 Q691.2656,276.5469 692.8594,276.5469 Q693.7969,276.5469 694.4531,276.2969 Q694.8438,276.1406 695.2656,275.7031 Q695.5313,275.4375 695.6719,275.3594 Q695.8281,275.2813 696.0313,275.2813 Q696.3594,275.2813 696.6094,275.5469 Q696.875,275.7969 696.875,276.1406 Q696.875,276.4844 696.5313,276.8906 Q696.0313,277.4688 695.2344,277.7969 Q694.1563,278.25 692.8594,278.25 Q691.3438,278.25 690.1406,277.625 Q689.1563,277.125 688.4688,276.0625 Q687.7813,274.9844 687.7813,273.7031 L687.7813,272.5469 Q687.7813,271.2188 688.3906,270.0781 Q689.0156,268.9219 690.1094,268.3125 Q691.2031,267.6875 692.4375,267.6875 Q693.1719,267.6875 693.8125,267.8594 Q694.4688,268.0156 695.0156,268.375 Z " fill="#000000"/><text fill="#000000" font-family="sans-serif" font-size="14" lengthAdjust="spacing" textLength="188" x="712.75" y="278.2285">InvestmentResultsComponent</text><line style="stroke:#181818;stroke-width:0.5;" x1="633.5" x2="947.5" y1="288.5" y2="288.5"/><ellipse cx="643.5" cy="302.8047" fill="none" rx="3" ry="3" style="stroke:#038048;stroke-width:1.0;"/><text fill="#000000" font-family="sans-serif" font-size="14" lengthAdjust="spacing" textLength="290" x="652.5" y="307.0332">annualInvestmentResults?: InvestmentResult[]</text><line style="stroke:#181818;stroke-width:0.5;" x1="633.5" x2="947.5" y1="314.1094" y2="314.1094"/></g><!--class HeaderComponent--><g id="elem_HeaderComponent"><rect codeLine="17" fill="#F1F1F1" height="48" id="HeaderComponent" rx="2.5" ry="2.5" style="stroke:#181818;stroke-width:0.5;" width="151" x="984" y="265.5"/><ellipse cx="999" cy="281.5" fill="#ADD1B2" rx="11" ry="11" style="stroke:#181818;stroke-width:1.0;"/><path d="M1001.7656,277.375 Q1001.9219,277.1563 1002.1094,277.0469 Q1002.2969,276.9375 1002.5156,276.9375 Q1002.8906,276.9375 1003.125,277.2031 Q1003.3594,277.4531 1003.3594,278.0625 L1003.3594,279.5156 Q1003.3594,280.125 1003.125,280.3906 Q1002.8906,280.6563 1002.5156,280.6563 Q1002.1719,280.6563 1001.9688,280.4531 Q1001.7656,280.2656 1001.6563,279.75 Q1001.6094,279.3906 1001.4219,279.2031 Q1001.0938,278.8281 1000.4844,278.6094 Q999.875,278.3906 999.25,278.3906 Q998.4844,278.3906 997.8438,278.7188 Q997.2188,279.0469 996.7188,279.7969 Q996.2344,280.5469 996.2344,281.5781 L996.2344,282.6719 Q996.2344,283.9063 997.125,284.7344 Q998.0156,285.5469 999.6094,285.5469 Q1000.5469,285.5469 1001.2031,285.2969 Q1001.5938,285.1406 1002.0156,284.7031 Q1002.2813,284.4375 1002.4219,284.3594 Q1002.5781,284.2813 1002.7813,284.2813 Q1003.1094,284.2813 1003.3594,284.5469 Q1003.625,284.7969 1003.625,285.1406 Q1003.625,285.4844 1003.2813,285.8906 Q1002.7813,286.4688 1001.9844,286.7969 Q1000.9063,287.25 999.6094,287.25 Q998.0938,287.25 996.8906,286.625 Q995.9063,286.125 995.2188,285.0625 Q994.5313,283.9844 994.5313,282.7031 L994.5313,281.5469 Q994.5313,280.2188 995.1406,279.0781 Q995.7656,277.9219 996.8594,277.3125 Q997.9531,276.6875 999.1875,276.6875 Q999.9219,276.6875 1000.5625,276.8594 Q1001.2188,277.0156 1001.7656,277.375 Z " fill="#000000"/><text fill="#000000" font-family="sans-serif" font-size="14" lengthAdjust="spacing" textLength="119" x="1013" y="287.2285">HeaderComponent</text><line style="stroke:#181818;stroke-width:0.5;" x1="985" x2="1134" y1="297.5" y2="297.5"/><line style="stroke:#181818;stroke-width:0.5;" x1="985" x2="1134" y1="305.5" y2="305.5"/></g><!--class InvestmentInput--><g id="elem_InvestmentInput"><rect codeLine="20" fill="#F1F1F1" height="118.4375" id="InvestmentInput" rx="2.5" ry="2.5" style="stroke:#181818;stroke-width:0.5;" width="193" x="1227" y="25"/><ellipse cx="1269.9" cy="41" fill="#ADD1B2" rx="11" ry="11" style="stroke:#181818;stroke-width:1.0;"/><path d="M1272.6656,36.875 Q1272.8219,36.6563 1273.0094,36.5469 Q1273.1969,36.4375 1273.4156,36.4375 Q1273.7906,36.4375 1274.025,36.7031 Q1274.2594,36.9531 1274.2594,37.5625 L1274.2594,39.0156 Q1274.2594,39.625 1274.025,39.8906 Q1273.7906,40.1563 1273.4156,40.1563 Q1273.0719,40.1563 1272.8688,39.9531 Q1272.6656,39.7656 1272.5563,39.25 Q1272.5094,38.8906 1272.3219,38.7031 Q1271.9938,38.3281 1271.3844,38.1094 Q1270.775,37.8906 1270.15,37.8906 Q1269.3844,37.8906 1268.7438,38.2188 Q1268.1188,38.5469 1267.6188,39.2969 Q1267.1344,40.0469 1267.1344,41.0781 L1267.1344,42.1719 Q1267.1344,43.4063 1268.025,44.2344 Q1268.9156,45.0469 1270.5094,45.0469 Q1271.4469,45.0469 1272.1031,44.7969 Q1272.4938,44.6406 1272.9156,44.2031 Q1273.1813,43.9375 1273.3219,43.8594 Q1273.4781,43.7813 1273.6813,43.7813 Q1274.0094,43.7813 1274.2594,44.0469 Q1274.525,44.2969 1274.525,44.6406 Q1274.525,44.9844 1274.1813,45.3906 Q1273.6813,45.9688 1272.8844,46.2969 Q1271.8063,46.75 1270.5094,46.75 Q1268.9938,46.75 1267.7906,46.125 Q1266.8063,45.625 1266.1188,44.5625 Q1265.4313,43.4844 1265.4313,42.2031 L1265.4313,41.0469 Q1265.4313,39.7188 1266.0406,38.5781 Q1266.6656,37.4219 1267.7594,36.8125 Q1268.8531,36.1875 1270.0875,36.1875 Q1270.8219,36.1875 1271.4625,36.3594 Q1272.1188,36.5156 1272.6656,36.875 Z " fill="#000000"/><text fill="#000000" font-family="sans-serif" font-size="14" lengthAdjust="spacing" textLength="99" x="1290.1" y="46.7285">InvestmentInput</text><line style="stroke:#181818;stroke-width:0.5;" x1="1228" x2="1419" y1="57" y2="57"/><ellipse cx="1238" cy="71.3047" fill="none" rx="3" ry="3" style="stroke:#038048;stroke-width:1.0;"/><text fill="#000000" font-family="sans-serif" font-size="14" lengthAdjust="spacing" textLength="156" x="1247" y="75.5332">initialInvestment: number</text><ellipse cx="1238" cy="88.9141" fill="none" rx="3" ry="3" style="stroke:#038048;stroke-width:1.0;"/><text fill="#000000" font-family="sans-serif" font-size="14" lengthAdjust="spacing" textLength="167" x="1247" y="93.1426">annualInvestment: number</text><ellipse cx="1238" cy="106.5234" fill="none" rx="3" ry="3" style="stroke:#038048;stroke-width:1.0;"/><text fill="#000000" font-family="sans-serif" font-size="14" lengthAdjust="spacing" textLength="156" x="1247" y="110.752">expectedReturn: number</text><ellipse cx="1238" cy="124.1328" fill="none" rx="3" ry="3" style="stroke:#038048;stroke-width:1.0;"/><text fill="#000000" font-family="sans-serif" font-size="14" lengthAdjust="spacing" textLength="108" x="1247" y="128.3613">duration: number</text><line style="stroke:#181818;stroke-width:0.5;" x1="1228" x2="1419" y1="135.4375" y2="135.4375"/></g><!--class InvestmentResult--><g id="elem_InvestmentResult"><rect codeLine="27" fill="#F1F1F1" height="153.6563" id="InvestmentResult" rx="2.5" ry="2.5" style="stroke:#181818;stroke-width:0.5;" width="210" x="1455.5" y="7"/><ellipse cx="1502.25" cy="23" fill="#ADD1B2" rx="11" ry="11" style="stroke:#181818;stroke-width:1.0;"/><path d="M1505.0156,18.875 Q1505.1719,18.6563 1505.3594,18.5469 Q1505.5469,18.4375 1505.7656,18.4375 Q1506.1406,18.4375 1506.375,18.7031 Q1506.6094,18.9531 1506.6094,19.5625 L1506.6094,21.0156 Q1506.6094,21.625 1506.375,21.8906 Q1506.1406,22.1563 1505.7656,22.1563 Q1505.4219,22.1563 1505.2188,21.9531 Q1505.0156,21.7656 1504.9063,21.25 Q1504.8594,20.8906 1504.6719,20.7031 Q1504.3438,20.3281 1503.7344,20.1094 Q1503.125,19.8906 1502.5,19.8906 Q1501.7344,19.8906 1501.0938,20.2188 Q1500.4688,20.5469 1499.9688,21.2969 Q1499.4844,22.0469 1499.4844,23.0781 L1499.4844,24.1719 Q1499.4844,25.4063 1500.375,26.2344 Q1501.2656,27.0469 1502.8594,27.0469 Q1503.7969,27.0469 1504.4531,26.7969 Q1504.8438,26.6406 1505.2656,26.2031 Q1505.5313,25.9375 1505.6719,25.8594 Q1505.8281,25.7813 1506.0313,25.7813 Q1506.3594,25.7813 1506.6094,26.0469 Q1506.875,26.2969 1506.875,26.6406 Q1506.875,26.9844 1506.5313,27.3906 Q1506.0313,27.9688 1505.2344,28.2969 Q1504.1563,28.75 1502.8594,28.75 Q1501.3438,28.75 1500.1406,28.125 Q1499.1563,27.625 1498.4688,26.5625 Q1497.7813,25.4844 1497.7813,24.2031 L1497.7813,23.0469 Q1497.7813,21.7188 1498.3906,20.5781 Q1499.0156,19.4219 1500.1094,18.8125 Q1501.2031,18.1875 1502.4375,18.1875 Q1503.1719,18.1875 1503.8125,18.3594 Q1504.4688,18.5156 1505.0156,18.875 Z " fill="#000000"/><text fill="#000000" font-family="sans-serif" font-size="14" lengthAdjust="spacing" textLength="108" x="1522.75" y="28.7285">InvestmentResult</text><line style="stroke:#181818;stroke-width:0.5;" x1="1456.5" x2="1664.5" y1="39" y2="39"/><ellipse cx="1466.5" cy="53.3047" fill="none" rx="3" ry="3" style="stroke:#038048;stroke-width:1.0;"/><text fill="#000000" font-family="sans-serif" font-size="14" lengthAdjust="spacing" textLength="84" x="1475.5" y="57.5332">year: number</text><ellipse cx="1466.5" cy="70.9141" fill="none" rx="3" ry="3" style="stroke:#038048;stroke-width:1.0;"/><text fill="#000000" font-family="sans-serif" font-size="14" lengthAdjust="spacing" textLength="103" x="1475.5" y="75.1426">interest: number</text><ellipse cx="1466.5" cy="88.5234" fill="none" rx="3" ry="3" style="stroke:#038048;stroke-width:1.0;"/><text fill="#000000" font-family="sans-serif" font-size="14" lengthAdjust="spacing" textLength="160" x="1475.5" y="92.752">valueEndOfYear: number</text><ellipse cx="1466.5" cy="106.1328" fill="none" rx="3" ry="3" style="stroke:#038048;stroke-width:1.0;"/><text fill="#000000" font-family="sans-serif" font-size="14" lengthAdjust="spacing" textLength="167" x="1475.5" y="110.3613">annualInvestment: number</text><ellipse cx="1466.5" cy="123.7422" fill="none" rx="3" ry="3" style="stroke:#038048;stroke-width:1.0;"/><text fill="#000000" font-family="sans-serif" font-size="14" lengthAdjust="spacing" textLength="130" x="1475.5" y="127.9707">totalInterest: number</text><ellipse cx="1466.5" cy="141.3516" fill="none" rx="3" ry="3" style="stroke:#038048;stroke-width:1.0;"/><text fill="#000000" font-family="sans-serif" font-size="14" lengthAdjust="spacing" textLength="184" x="1475.5" y="145.5801">totalAmountInvested: number</text><line style="stroke:#181818;stroke-width:0.5;" x1="1456.5" x2="1664.5" y1="152.6563" y2="152.6563"/></g><!--class AppComponentTemplate--><g id="elem_AppComponentTemplate"><rect codeLine="36" fill="#F1F1F1" height="100.8281" id="AppComponentTemplate" rx="2.5" ry="2.5" style="stroke:#181818;stroke-width:0.5;" width="551" x="1170" y="239"/><ellipse cx="1377.25" cy="255" fill="#ADD1B2" rx="11" ry="11" style="stroke:#181818;stroke-width:1.0;"/><path d="M1380.0156,250.875 Q1380.1719,250.6563 1380.3594,250.5469 Q1380.5469,250.4375 1380.7656,250.4375 Q1381.1406,250.4375 1381.375,250.7031 Q1381.6094,250.9531 1381.6094,251.5625 L1381.6094,253.0156 Q1381.6094,253.625 1381.375,253.8906 Q1381.1406,254.1563 1380.7656,254.1563 Q1380.4219,254.1563 1380.2188,253.9531 Q1380.0156,253.7656 1379.9063,253.25 Q1379.8594,252.8906 1379.6719,252.7031 Q1379.3438,252.3281 1378.7344,252.1094 Q1378.125,251.8906 1377.5,251.8906 Q1376.7344,251.8906 1376.0938,252.2188 Q1375.4688,252.5469 1374.9688,253.2969 Q1374.4844,254.0469 1374.4844,255.0781 L1374.4844,256.1719 Q1374.4844,257.4063 1375.375,258.2344 Q1376.2656,259.0469 1377.8594,259.0469 Q1378.7969,259.0469 1379.4531,258.7969 Q1379.8438,258.6406 1380.2656,258.2031 Q1380.5313,257.9375 1380.6719,257.8594 Q1380.8281,257.7813 1381.0313,257.7813 Q1381.3594,257.7813 1381.6094,258.0469 Q1381.875,258.2969 1381.875,258.6406 Q1381.875,258.9844 1381.5313,259.3906 Q1381.0313,259.9688 1380.2344,260.2969 Q1379.1563,260.75 1377.8594,260.75 Q1376.3438,260.75 1375.1406,260.125 Q1374.1563,259.625 1373.4688,258.5625 Q1372.7813,257.4844 1372.7813,256.2031 L1372.7813,255.0469 Q1372.7813,253.7188 1373.3906,252.5781 Q1374.0156,251.4219 1375.1094,250.8125 Q1376.2031,250.1875 1377.4375,250.1875 Q1378.1719,250.1875 1378.8125,250.3594 Q1379.4688,250.5156 1380.0156,250.875 Z " fill="#000000"/><text fill="#000000" font-family="sans-serif" font-size="14" lengthAdjust="spacing" textLength="128" x="1397.75" y="260.7285">app.component.html</text><line style="stroke:#181818;stroke-width:0.5;" x1="1171" x2="1720" y1="271" y2="271"/><ellipse cx="1181" cy="285.3047" fill="none" rx="3" ry="3" style="stroke:#038048;stroke-width:1.0;"/><text fill="#000000" font-family="sans-serif" font-size="14" lengthAdjust="spacing" textLength="74" x="1190" y="289.5332">app-header</text><ellipse cx="1181" cy="302.9141" fill="none" rx="3" ry="3" style="stroke:#038048;stroke-width:1.0;"/><text fill="#000000" font-family="sans-serif" font-size="14" lengthAdjust="spacing" textLength="490" x="1190" y="307.1426">app-investment-results [annualInvestmentResults]="annualInvestmentResults"</text><line style="stroke:#181818;stroke-width:0.5;" x1="1171" x2="1720" y1="314.2188" y2="314.2188"/><ellipse cx="1181" cy="328.5234" fill="#84BE84" rx="3" ry="3" style="stroke:#038048;stroke-width:1.0;"/><text fill="#000000" font-family="sans-serif" font-size="14" lengthAdjust="spacing" textLength="525" x="1190" y="332.752">app-user-input (investmentInputChanged)="onCalculateInvestmentResults($event)"</text></g><!--class UserInputComponentTemplate--><g id="elem_UserInputComponentTemplate"><rect codeLine="42" fill="#F1F1F1" height="153.6563" id="UserInputComponentTemplate" rx="2.5" ry="2.5" style="stroke:#181818;stroke-width:0.5;" width="365" x="7" y="444"/><ellipse cx="101.25" cy="460" fill="#ADD1B2" rx="11" ry="11" style="stroke:#181818;stroke-width:1.0;"/><path d="M104.0156,455.875 Q104.1719,455.6563 104.3594,455.5469 Q104.5469,455.4375 104.7656,455.4375 Q105.1406,455.4375 105.375,455.7031 Q105.6094,455.9531 105.6094,456.5625 L105.6094,458.0156 Q105.6094,458.625 105.375,458.8906 Q105.1406,459.1563 104.7656,459.1563 Q104.4219,459.1563 104.2188,458.9531 Q104.0156,458.7656 103.9063,458.25 Q103.8594,457.8906 103.6719,457.7031 Q103.3438,457.3281 102.7344,457.1094 Q102.125,456.8906 101.5,456.8906 Q100.7344,456.8906 100.0938,457.2188 Q99.4688,457.5469 98.9688,458.2969 Q98.4844,459.0469 98.4844,460.0781 L98.4844,461.1719 Q98.4844,462.4063 99.375,463.2344 Q100.2656,464.0469 101.8594,464.0469 Q102.7969,464.0469 103.4531,463.7969 Q103.8438,463.6406 104.2656,463.2031 Q104.5313,462.9375 104.6719,462.8594 Q104.8281,462.7813 105.0313,462.7813 Q105.3594,462.7813 105.6094,463.0469 Q105.875,463.2969 105.875,463.6406 Q105.875,463.9844 105.5313,464.3906 Q105.0313,464.9688 104.2344,465.2969 Q103.1563,465.75 101.8594,465.75 Q100.3438,465.75 99.1406,465.125 Q98.1563,464.625 97.4688,463.5625 Q96.7813,462.4844 96.7813,461.2031 L96.7813,460.0469 Q96.7813,458.7188 97.3906,457.5781 Q98.0156,456.4219 99.1094,455.8125 Q100.2031,455.1875 101.4375,455.1875 Q102.1719,455.1875 102.8125,455.3594 Q103.4688,455.5156 104.0156,455.875 Z " fill="#000000"/><text fill="#000000" font-family="sans-serif" font-size="14" lengthAdjust="spacing" textLength="168" x="121.75" y="465.7285">user-input.component.html</text><line style="stroke:#181818;stroke-width:0.5;" x1="8" x2="371" y1="476" y2="476"/><ellipse cx="18" cy="490.3047" fill="none" rx="3" ry="3" style="stroke:#038048;stroke-width:1.0;"/><text fill="#000000" font-family="sans-serif" font-size="14" lengthAdjust="spacing" textLength="130" x="27" y="494.5332">button type="submit"</text><line style="stroke:#181818;stroke-width:0.5;" x1="8" x2="371" y1="501.6094" y2="501.6094"/><ellipse cx="18" cy="515.9141" fill="#84BE84" rx="3" ry="3" style="stroke:#038048;stroke-width:1.0;"/><text fill="#000000" font-family="sans-serif" font-size="14" lengthAdjust="spacing" textLength="188" x="27" y="520.1426">form (ngSubmit)="onSubmit()"</text><ellipse cx="18" cy="533.5234" fill="#84BE84" rx="3" ry="3" style="stroke:#038048;stroke-width:1.0;"/><text fill="#000000" font-family="sans-serif" font-size="14" lengthAdjust="spacing" textLength="328" x="27" y="537.752">input [(ngModel)]="investmentInput.initialInvestment"</text><ellipse cx="18" cy="551.1328" fill="#84BE84" rx="3" ry="3" style="stroke:#038048;stroke-width:1.0;"/><text fill="#000000" font-family="sans-serif" font-size="14" lengthAdjust="spacing" textLength="339" x="27" y="555.3613">input [(ngModel)]="investmentInput.annualInvestment"</text><ellipse cx="18" cy="568.7422" fill="#84BE84" rx="3" ry="3" style="stroke:#038048;stroke-width:1.0;"/><text fill="#000000" font-family="sans-serif" font-size="14" lengthAdjust="spacing" textLength="328" x="27" y="572.9707">input [(ngModel)]="investmentInput.expectedReturn"</text><ellipse cx="18" cy="586.3516" fill="#84BE84" rx="3" ry="3" style="stroke:#038048;stroke-width:1.0;"/><text fill="#000000" font-family="sans-serif" font-size="14" lengthAdjust="spacing" textLength="280" x="27" y="590.5801">input [(ngModel)]="investmentInput.duration"</text></g><!--class InvestmentResultsComponentTemplate--><g id="elem_InvestmentResultsComponentTemplate"><rect codeLine="51" fill="#F1F1F1" height="206.4844" id="InvestmentResultsComponentTemplate" rx="2.5" ry="2.5" style="stroke:#181818;stroke-width:0.5;" width="351" x="573" y="418"/><ellipse cx="634.75" cy="434" fill="#ADD1B2" rx="11" ry="11" style="stroke:#181818;stroke-width:1.0;"/><path d="M637.5156,429.875 Q637.6719,429.6563 637.8594,429.5469 Q638.0469,429.4375 638.2656,429.4375 Q638.6406,429.4375 638.875,429.7031 Q639.1094,429.9531 639.1094,430.5625 L639.1094,432.0156 Q639.1094,432.625 638.875,432.8906 Q638.6406,433.1563 638.2656,433.1563 Q637.9219,433.1563 637.7188,432.9531 Q637.5156,432.7656 637.4063,432.25 Q637.3594,431.8906 637.1719,431.7031 Q636.8438,431.3281 636.2344,431.1094 Q635.625,430.8906 635,430.8906 Q634.2344,430.8906 633.5938,431.2188 Q632.9688,431.5469 632.4688,432.2969 Q631.9844,433.0469 631.9844,434.0781 L631.9844,435.1719 Q631.9844,436.4063 632.875,437.2344 Q633.7656,438.0469 635.3594,438.0469 Q636.2969,438.0469 636.9531,437.7969 Q637.3438,437.6406 637.7656,437.2031 Q638.0313,436.9375 638.1719,436.8594 Q638.3281,436.7813 638.5313,436.7813 Q638.8594,436.7813 639.1094,437.0469 Q639.375,437.2969 639.375,437.6406 Q639.375,437.9844 639.0313,438.3906 Q638.5313,438.9688 637.7344,439.2969 Q636.6563,439.75 635.3594,439.75 Q633.8438,439.75 632.6406,439.125 Q631.6563,438.625 630.9688,437.5625 Q630.2813,436.4844 630.2813,435.2031 L630.2813,434.0469 Q630.2813,432.7188 630.8906,431.5781 Q631.5156,430.4219 632.6094,429.8125 Q633.7031,429.1875 634.9375,429.1875 Q635.6719,429.1875 636.3125,429.3594 Q636.9688,429.5156 637.5156,429.875 Z " fill="#000000"/><text fill="#000000" font-family="sans-serif" font-size="14" lengthAdjust="spacing" textLength="219" x="655.25" y="439.7285">investment-results.component.html</text><line style="stroke:#181818;stroke-width:0.5;" x1="574" x2="923" y1="450" y2="450"/><ellipse cx="584" cy="464.3047" fill="none" rx="3" ry="3" style="stroke:#038048;stroke-width:1.0;"/><text fill="#000000" font-family="sans-serif" font-size="14" lengthAdjust="spacing" textLength="31" x="593" y="468.5332">table</text><ellipse cx="584" cy="481.9141" fill="none" rx="3" ry="3" style="stroke:#038048;stroke-width:1.0;"/><text fill="#000000" font-family="sans-serif" font-size="14" lengthAdjust="spacing" textLength="36" x="593" y="486.1426">thead</text><ellipse cx="584" cy="499.5234" fill="none" rx="3" ry="3" style="stroke:#038048;stroke-width:1.0;"/><text fill="#000000" font-family="sans-serif" font-size="14" lengthAdjust="spacing" textLength="325" x="593" y="503.752">tbody *ngFor="let data of annualInvestmentResults"</text><ellipse cx="584" cy="517.1328" fill="none" rx="3" ry="3" style="stroke:#038048;stroke-width:1.0;"/><text fill="#000000" font-family="sans-serif" font-size="14" lengthAdjust="spacing" textLength="104" x="593" y="521.3613">td {{ data.year }}</text><ellipse cx="584" cy="534.7422" fill="none" rx="3" ry="3" style="stroke:#038048;stroke-width:1.0;"/><text fill="#000000" font-family="sans-serif" font-size="14" lengthAdjust="spacing" textLength="235" x="593" y="538.9707">td {{ data.interest | currency : 'EUR' }}</text><ellipse cx="584" cy="552.3516" fill="none" rx="3" ry="3" style="stroke:#038048;stroke-width:1.0;"/><text fill="#000000" font-family="sans-serif" font-size="14" lengthAdjust="spacing" textLength="292" x="593" y="556.5801">td {{ data.valueEndOfYear | currency : 'EUR' }}</text><ellipse cx="584" cy="569.9609" fill="none" rx="3" ry="3" style="stroke:#038048;stroke-width:1.0;"/><text fill="#000000" font-family="sans-serif" font-size="14" lengthAdjust="spacing" textLength="299" x="593" y="574.1895">td {{ data.annualInvestment | currency : 'EUR' }}</text><ellipse cx="584" cy="587.5703" fill="none" rx="3" ry="3" style="stroke:#038048;stroke-width:1.0;"/><text fill="#000000" font-family="sans-serif" font-size="14" lengthAdjust="spacing" textLength="262" x="593" y="591.7988">td {{ data.totalInterest | currency : 'EUR' }}</text><ellipse cx="584" cy="605.1797" fill="none" rx="3" ry="3" style="stroke:#038048;stroke-width:1.0;"/><text fill="#000000" font-family="sans-serif" font-size="14" lengthAdjust="spacing" textLength="316" x="593" y="609.4082">td {{ data.totalAmountInvested | currency : 'EUR' }}</text><line style="stroke:#181818;stroke-width:0.5;" x1="574" x2="923" y1="616.4844" y2="616.4844"/></g><!--class HeaderComponentTemplate--><g id="elem_HeaderComponentTemplate"><rect codeLine="63" fill="#F1F1F1" height="100.8281" id="HeaderComponentTemplate" rx="2.5" ry="2.5" style="stroke:#181818;stroke-width:0.5;" width="283" x="959" y="470.5"/><ellipse cx="1021.75" cy="486.5" fill="#ADD1B2" rx="11" ry="11" style="stroke:#181818;stroke-width:1.0;"/><path d="M1024.5156,482.375 Q1024.6719,482.1563 1024.8594,482.0469 Q1025.0469,481.9375 1025.2656,481.9375 Q1025.6406,481.9375 1025.875,482.2031 Q1026.1094,482.4531 1026.1094,483.0625 L1026.1094,484.5156 Q1026.1094,485.125 1025.875,485.3906 Q1025.6406,485.6563 1025.2656,485.6563 Q1024.9219,485.6563 1024.7188,485.4531 Q1024.5156,485.2656 1024.4063,484.75 Q1024.3594,484.3906 1024.1719,484.2031 Q1023.8438,483.8281 1023.2344,483.6094 Q1022.625,483.3906 1022,483.3906 Q1021.2344,483.3906 1020.5938,483.7188 Q1019.9688,484.0469 1019.4688,484.7969 Q1018.9844,485.5469 1018.9844,486.5781 L1018.9844,487.6719 Q1018.9844,488.9063 1019.875,489.7344 Q1020.7656,490.5469 1022.3594,490.5469 Q1023.2969,490.5469 1023.9531,490.2969 Q1024.3438,490.1406 1024.7656,489.7031 Q1025.0313,489.4375 1025.1719,489.3594 Q1025.3281,489.2813 1025.5313,489.2813 Q1025.8594,489.2813 1026.1094,489.5469 Q1026.375,489.7969 1026.375,490.1406 Q1026.375,490.4844 1026.0313,490.8906 Q1025.5313,491.4688 1024.7344,491.7969 Q1023.6563,492.25 1022.3594,492.25 Q1020.8438,492.25 1019.6406,491.625 Q1018.6563,491.125 1017.9688,490.0625 Q1017.2813,488.9844 1017.2813,487.7031 L1017.2813,486.5469 Q1017.2813,485.2188 1017.8906,484.0781 Q1018.5156,482.9219 1019.6094,482.3125 Q1020.7031,481.6875 1021.9375,481.6875 Q1022.6719,481.6875 1023.3125,481.8594 Q1023.9688,482.0156 1024.5156,482.375 Z " fill="#000000"/><text fill="#000000" font-family="sans-serif" font-size="14" lengthAdjust="spacing" textLength="149" x="1042.25" y="492.2285">header.component.html</text><line style="stroke:#181818;stroke-width:0.5;" x1="960" x2="1241" y1="502.5" y2="502.5"/><ellipse cx="970" cy="516.8047" fill="none" rx="3" ry="3" style="stroke:#038048;stroke-width:1.0;"/><text fill="#000000" font-family="sans-serif" font-size="14" lengthAdjust="spacing" textLength="45" x="979" y="521.0332">header</text><ellipse cx="970" cy="534.4141" fill="none" rx="3" ry="3" style="stroke:#038048;stroke-width:1.0;"/><text fill="#000000" font-family="sans-serif" font-size="14" lengthAdjust="spacing" textLength="257" x="979" y="538.6426">img src="investment-calculator-logo.png"</text><ellipse cx="970" cy="552.0234" fill="none" rx="3" ry="3" style="stroke:#038048;stroke-width:1.0;"/><text fill="#000000" font-family="sans-serif" font-size="14" lengthAdjust="spacing" textLength="156" x="979" y="556.252">h1 Investment Calculator</text><line style="stroke:#181818;stroke-width:0.5;" x1="960" x2="1241" y1="563.3281" y2="563.3281"/></g><!--class EventEmitter--><g id="elem_EventEmitter"><rect fill="#F1F1F1" height="48" id="EventEmitter" rx="2.5" ry="2.5" style="stroke:#181818;stroke-width:0.5;" width="112" x="407.5" y="497"/><ellipse cx="422.5" cy="513" fill="#ADD1B2" rx="11" ry="11" style="stroke:#181818;stroke-width:1.0;"/><path d="M425.2656,508.875 Q425.4219,508.6563 425.6094,508.5469 Q425.7969,508.4375 426.0156,508.4375 Q426.3906,508.4375 426.625,508.7031 Q426.8594,508.9531 426.8594,509.5625 L426.8594,511.0156 Q426.8594,511.625 426.625,511.8906 Q426.3906,512.1563 426.0156,512.1563 Q425.6719,512.1563 425.4688,511.9531 Q425.2656,511.7656 425.1563,511.25 Q425.1094,510.8906 424.9219,510.7031 Q424.5938,510.3281 423.9844,510.1094 Q423.375,509.8906 422.75,509.8906 Q421.9844,509.8906 421.3438,510.2188 Q420.7188,510.5469 420.2188,511.2969 Q419.7344,512.0469 419.7344,513.0781 L419.7344,514.1719 Q419.7344,515.4063 420.625,516.2344 Q421.5156,517.0469 423.1094,517.0469 Q424.0469,517.0469 424.7031,516.7969 Q425.0938,516.6406 425.5156,516.2031 Q425.7813,515.9375 425.9219,515.8594 Q426.0781,515.7813 426.2813,515.7813 Q426.6094,515.7813 426.8594,516.0469 Q427.125,516.2969 427.125,516.6406 Q427.125,516.9844 426.7813,517.3906 Q426.2813,517.9688 425.4844,518.2969 Q424.4063,518.75 423.1094,518.75 Q421.5938,518.75 420.3906,518.125 Q419.4063,517.625 418.7188,516.5625 Q418.0313,515.4844 418.0313,514.2031 L418.0313,513.0469 Q418.0313,511.7188 418.6406,510.5781 Q419.2656,509.4219 420.3594,508.8125 Q421.4531,508.1875 422.6875,508.1875 Q423.4219,508.1875 424.0625,508.3594 Q424.7188,508.5156 425.2656,508.875 Z " fill="#000000"/><text fill="#000000" font-family="sans-serif" font-size="14" lengthAdjust="spacing" textLength="80" x="436.5" y="518.7285">EventEmitter</text><line style="stroke:#181818;stroke-width:0.5;" x1="408.5" x2="518.5" y1="529" y2="529"/><line style="stroke:#181818;stroke-width:0.5;" x1="408.5" x2="518.5" y1="537" y2="537"/></g><!--link AppComponent to AppComponentTemplate--><g id="link_AppComponent_AppComponentTemplate"><path codeLine="69" d="M1055.59,125.57 C1133.56,158.15 1237.8538,201.7368 1321.0938,236.5168 " fill="none" id="AppComponent-to-AppComponentTemplate" style="stroke:#181818;stroke-width:1.0;"/><polygon fill="#181818" points="1326.63,238.83,1319.8678,231.6695,1322.0165,236.9024,1316.7836,239.051,1326.63,238.83" style="stroke:#181818;stroke-width:1.0;"/><text fill="#000000" font-family="sans-serif" font-size="13" lengthAdjust="spacing" textLength="82" x="1247.5" y="205.4951">uses template</text></g><!--link UserInputComponent to UserInputComponentTemplate--><g id="link_UserInputComponent_UserInputComponentTemplate"><path codeLine="70" d="M358.11,340.02 C329.72,370.32 296.9115,405.3407 264.8715,439.5507 " fill="none" id="UserInputComponent-to-UserInputComponentTemplate" style="stroke:#181818;stroke-width:1.0;"/><polygon fill="#181818" points="260.77,443.93,269.8417,440.0954,264.1879,440.2806,264.0027,434.6268,260.77,443.93" style="stroke:#181818;stroke-width:1.0;"/><text fill="#000000" font-family="sans-serif" font-size="13" lengthAdjust="spacing" textLength="82" x="330.5" y="384.4951">uses template</text></g><!--link InvestmentResultsComponent to InvestmentResultsComponentTemplate--><g id="link_InvestmentResultsComponent_InvestmentResultsComponentTemplate"><path codeLine="71" d="M784.57,322.89 C780.02,347.79 774.5406,377.7181 768.2606,412.0181 " fill="none" id="InvestmentResultsComponent-to-InvestmentResultsComponentTemplate" style="stroke:#181818;stroke-width:1.0;"/><polygon fill="#181818" points="767.18,417.92,772.7355,409.7875,768.0805,413.0018,764.8663,408.3468,767.18,417.92" style="stroke:#181818;stroke-width:1.0;"/><text fill="#000000" font-family="sans-serif" font-size="13" lengthAdjust="spacing" textLength="82" x="777.5" y="384.4951">uses template</text></g><!--link HeaderComponent to HeaderComponentTemplate--><g id="link_HeaderComponent_HeaderComponentTemplate"><path codeLine="72" d="M1063.66,313.77 C1070.17,350.23 1081.8743,415.7736 1090.5343,464.2236 " fill="none" id="HeaderComponent-to-HeaderComponentTemplate" style="stroke:#181818;stroke-width:1.0;"/><polygon fill="#181818" points="1091.59,470.13,1093.944,460.5666,1090.7102,465.208,1086.0688,461.9742,1091.59,470.13" style="stroke:#181818;stroke-width:1.0;"/><text fill="#000000" font-family="sans-serif" font-size="13" lengthAdjust="spacing" textLength="82" x="1077.5" y="384.4951">uses template</text></g><!--link AppComponent to HeaderComponent--><g id="link_AppComponent_HeaderComponent"><path codeLine="74" d="M978.7,125.69 C999.48,167.56 1028.4526,225.9555 1045.3126,259.9255 " fill="none" id="AppComponent-to-HeaderComponent" style="stroke:#181818;stroke-width:1.0;"/><polygon fill="#181818" points="1047.98,265.3,1047.5618,255.46,1045.7571,260.8213,1040.3959,259.0166,1047.98,265.3" style="stroke:#181818;stroke-width:1.0;"/><text fill="#000000" font-family="sans-serif" font-size="13" lengthAdjust="spacing" textLength="43" x="1019.5" y="205.4951">imports</text></g><!--link AppComponent to UserInputComponent--><g id="link_AppComponent_UserInputComponent"><path codeLine="75" d="M848.05,125.57 C759.27,158.18 639.8221,202.0614 545.1021,236.8514 " fill="none" id="AppComponent-to-UserInputComponent" style="stroke:#181818;stroke-width:1.0;"/><polygon fill="#181818" points="539.47,238.92,549.2973,239.5718,544.1634,237.1961,546.5391,232.0623,539.47,238.92" style="stroke:#181818;stroke-width:1.0;"/><text fill="#000000" font-family="sans-serif" font-size="13" lengthAdjust="spacing" textLength="43" x="666.5" y="205.4951">imports</text></g><!--link AppComponent to InvestmentResultsComponent--><g id="link_AppComponent_InvestmentResultsComponent"><path codeLine="76" d="M924.91,125.69 C893.21,164.08 850.1397,216.2529 820.9497,251.6129 " fill="none" id="AppComponent-to-InvestmentResultsComponent" style="stroke:#181818;stroke-width:1.0;"/><polygon fill="#181818" points="817.13,256.24,825.9443,251.8458,820.3131,252.3841,819.7748,246.7529,817.13,256.24" style="stroke:#181818;stroke-width:1.0;"/><text fill="#000000" font-family="sans-serif" font-size="13" lengthAdjust="spacing" textLength="43" x="870.5" y="205.4951">imports</text></g><!--link UserInputComponent to EventEmitter--><g id="link_UserInputComponent_EventEmitter"><path codeLine="77" d="M417.23,340.02 C429.7,388.51 446.6563,454.4589 456.0463,490.9889 " fill="none" id="UserInputComponent-to-EventEmitter" style="stroke:#181818;stroke-width:1.0;"/><polygon fill="#181818" points="457.54,496.8,459.1735,487.0875,456.2952,491.9574,451.4253,489.0792,457.54,496.8" style="stroke:#181818;stroke-width:1.0;"/></g><!--SRC=[fLLDYzim4BtxLmoci4cB0xsQPiiIKhg7KaYxXxBiGR4dZa6MX2o5XZJ_lPOSnxByKKDlyioyySoRDr92ILd2an0RNWZEa2cu100V26EQq6Tsmb8LbNM7fQQg_1o3RtjzC_6SRGXDD2KAUw15VhSyCw6LcyCQbZ6SU9u6ro18R3ql9KhhyQhwLwA1cCsHi0pJ6BQdohGjSgLGVl9mZtKBF_I-yYzwvVGw-X-oxbc_8abHkga6VcZBQvhFLUx-9WQcYptAeH9S7_uMc2XCTwYqPAudrPAedBUsqPRh4iv8f8lFMKLc5UVQJeHgtBBq- -6N5prLe-BAkFhfhEEfuDfmOP1cbdwr8H5YbJHChewge26Ghgv_OY6CF6yZ4o8wsW4qNxhIN9HRkXV36bgkmqcPlqCZiMNOP6opHB8EWTSHgRojmn5Fw7JPbZZKR7zfkYqVk2nWmR9QvRQPHl1XFKpJ-siLyOsdI9TLJHuFgvu4vmBzvkRYkjATYsfaRUFtMYdEG9q5hiFIDknosX_I4BVZDq2NOqNs5Et1YCiUzZmzmtkMVU5o7L9Ka195W1zWTE06bSBbOYDNPkVWUlMipUR17qYqbCYICyJmi7tPFVI3koiv2-8NDmlKMUBvYEvsZ-3QYTLhEpGbxqRjZgRTzhp8e9I9gviekQqrbn7b6Ly9bjb173ywiuVDFShKqtare-Xn-Bg9eLhR4jJjEnXusmnsOdlz31FFaSaqGwj-HlyfCcd6oFInVHhyR37arL6giXywGCP4z4JZBMg4N_Vv3_u2]--></g></svg>